<svg xmlns="http://www.w3.org/2000/svg" viewBox="0 0 140 200" width="140" height="200">
  <defs>
    <linearGradient id="bg" x1="0%" y1="0%" x2="100%" y2="100%">
      <stop offset="0%" stop-color="#5c101c"/>
      <stop offset="50%" stop-color="#8b1a2b"/>
      <stop offset="100%" stop-color="#3d0a12"/>
    </linearGradient>
    <pattern id="damask" width="20" height="20" patternUnits="userSpaceOnUse">
      <circle cx="10" cy="10" r="1.2" fill="#d4af37" opacity="0.12"/>
    </pattern>
    <linearGradient id="frame" x1="0%" y1="0%" x2="0%" y2="100%">
      <stop offset="0%" stop-color="#f0d060"/>
      <stop offset="40%" stop-color="#d4af37"/>
      <stop offset="100%" stop-color="#8a7020"/>
    </linearGradient>
  </defs>
  <rect width="140" height="200" rx="10" fill="url(#bg)"/>
  <rect width="140" height="200" rx="10" fill="url(#damask)"/>
  <rect x="6" y="6" width="128" height="188" rx="8" fill="none" stroke="url(#frame)" stroke-width="2"/>
  <rect x="14" y="14" width="112" height="172" rx="6" fill="none" stroke="#d4af37" stroke-width="0.6" opacity="0.45"/>
  <path
    d="M70 48c-8 0-14 6-14 14 0 10 14 24 14 24s14-14 14-24c0-8-6-14-14-14zm0 88c-6 0-10 4-10 10s4 10 10 10 10-4 10-10-4-10-10-10z"
    fill="none"
    stroke="#d4af37"
    stroke-width="1.2"
    opacity="0.55"
  />
  <text
    x="70"
    y="108"
    text-anchor="middle"
    font-family="Georgia, serif"
    font-size="11"
    fill="#d4af37"
    opacity="0.7"
    letter-spacing="3"
  >AC</text>
</svg>
